<svg width="48" height="48" viewBox="0 0 48 48" fill="none" xmlns="http://www.w3.org/2000/svg">
<path d="M33.75 34.0625C36.375 31.5 38 27.9375 38 24C38 16.3125 31.6875 10 24 10C16.25 10 10 16.3125 10 24C10 27.9375 11.625 31.5 14.1875 34.0625C15.0625 30.625 18.25 28 22 28H26C29.6875 28 32.875 30.625 33.75 34.0625ZM31.9375 35.5V35.5625C31.6875 32.4375 29.125 30 26 30H22C18.8125 30 16.25 32.4375 16 35.5625C18.25 37.125 21 38 24 38C26.9375 38 29.6875 37.125 31.9375 35.5ZM24 40C18.25 40 13 37 10.125 32C7.25 27.0625 7.25 21 10.125 16C13 11.0625 18.25 8 24 8C29.6875 8 34.9375 11.0625 37.8125 16C40.6875 21 40.6875 27.0625 37.8125 32C34.9375 37 29.6875 40 24 40ZM24 24C25.0625 24 26 23.4375 26.5625 22.5C27.125 21.625 27.125 20.4375 26.5625 19.5C26 18.625 25.0625 18 24 18C22.875 18 21.9375 18.625 21.375 19.5C20.8125 20.4375 20.8125 21.625 21.375 22.5C21.9375 23.4375 22.875 24 24 24ZM19 21C19 19.25 19.9375 17.625 21.5 16.6875C23 15.8125 24.9375 15.8125 26.5 16.6875C28 17.625 29 19.25 29 21C29 22.8125 28 24.4375 26.5 25.375C24.9375 26.25 23 26.25 21.5 25.375C19.9375 24.4375 19 22.8125 19 21Z" fill="black" fill-opacity="0.72"/>
</svg>
