<svg width="264" height="40" viewBox="0 0 264 40" fill="none" xmlns="http://www.w3.org/2000/svg">
<rect width="264" height="40" rx="20" fill="url(#paint0_linear_12214_4912)" fill-opacity="0.08"/>
<g clip-path="url(#clip0_12214_4912)">
<path d="M99.9414 15.1016L101.5 14.5L102.074 12.9688C102.102 12.832 102.238 12.75 102.375 12.75C102.484 12.75 102.621 12.832 102.648 12.9688L103.25 14.5L104.781 15.1016C104.918 15.1289 105 15.2656 105 15.375C105 15.5117 104.918 15.6484 104.781 15.6758L103.25 16.25L102.648 17.8086C102.621 17.918 102.484 18 102.375 18C102.238 18 102.102 17.918 102.074 17.8086L101.5 16.25L99.9414 15.6758C99.832 15.6484 99.75 15.5117 99.75 15.375C99.75 15.2656 99.832 15.1289 99.9414 15.1016ZM96.6055 14.7734L98.0273 17.8906L101.145 19.3125C101.309 19.3945 101.418 19.5586 101.418 19.7227C101.418 19.8867 101.309 20.0508 101.145 20.1055L98.0273 21.5547L96.6055 24.6719C96.5234 24.8359 96.3594 24.9453 96.1953 24.9453C96.0312 24.9453 95.8672 24.8359 95.8125 24.6719L94.3633 21.5547L91.2461 20.1328C91.082 20.0508 91 19.8867 91 19.7227C91 19.5586 91.082 19.3945 91.2461 19.3125L94.3633 17.8906L95.8125 14.7734C95.8672 14.6094 96.0312 14.5 96.1953 14.5C96.3594 14.5 96.5234 14.6094 96.6055 14.7734ZM101.5 23.25L102.074 21.7188C102.102 21.582 102.238 21.5 102.375 21.5C102.484 21.5 102.621 21.582 102.648 21.7188L103.25 23.25L104.781 23.8516C104.918 23.8789 105 24.0156 105 24.125C105 24.2617 104.918 24.3984 104.781 24.4258L103.25 25L102.648 26.5586C102.621 26.668 102.484 26.75 102.375 26.75C102.238 26.75 102.102 26.668 102.074 26.5586L101.5 25L99.9414 24.4258C99.832 24.3984 99.75 24.2617 99.75 24.125C99.75 24.0156 99.832 23.8789 99.9414 23.8516L101.5 23.25Z" fill="#181C25"/>
<path d="M99.9414 15.1016L101.5 14.5L102.074 12.9688C102.102 12.832 102.238 12.75 102.375 12.75C102.484 12.75 102.621 12.832 102.648 12.9688L103.25 14.5L104.781 15.1016C104.918 15.1289 105 15.2656 105 15.375C105 15.5117 104.918 15.6484 104.781 15.6758L103.25 16.25L102.648 17.8086C102.621 17.918 102.484 18 102.375 18C102.238 18 102.102 17.918 102.074 17.8086L101.5 16.25L99.9414 15.6758C99.832 15.6484 99.75 15.5117 99.75 15.375C99.75 15.2656 99.832 15.1289 99.9414 15.1016ZM96.6055 14.7734L98.0273 17.8906L101.145 19.3125C101.309 19.3945 101.418 19.5586 101.418 19.7227C101.418 19.8867 101.309 20.0508 101.145 20.1055L98.0273 21.5547L96.6055 24.6719C96.5234 24.8359 96.3594 24.9453 96.1953 24.9453C96.0312 24.9453 95.8672 24.8359 95.8125 24.6719L94.3633 21.5547L91.2461 20.1328C91.082 20.0508 91 19.8867 91 19.7227C91 19.5586 91.082 19.3945 91.2461 19.3125L94.3633 17.8906L95.8125 14.7734C95.8672 14.6094 96.0312 14.5 96.1953 14.5C96.3594 14.5 96.5234 14.6094 96.6055 14.7734ZM101.5 23.25L102.074 21.7188C102.102 21.582 102.238 21.5 102.375 21.5C102.484 21.5 102.621 21.582 102.648 21.7188L103.25 23.25L104.781 23.8516C104.918 23.8789 105 24.0156 105 24.125C105 24.2617 104.918 24.3984 104.781 24.4258L103.25 25L102.648 26.5586C102.621 26.668 102.484 26.75 102.375 26.75C102.238 26.75 102.102 26.668 102.074 26.5586L101.5 25L99.9414 24.4258C99.832 24.3984 99.75 24.2617 99.75 24.125C99.75 24.0156 99.832 23.8789 99.9414 23.8516L101.5 23.25Z" fill="url(#paint1_linear_12214_4912)" fill-opacity="0.4"/>
</g>
<path d="M114.088 25H111.443L114.879 14.8182H118.155L121.59 25H118.945L116.554 17.3835H116.475L114.088 25ZM113.735 20.9929H119.264V22.8622H113.735V20.9929ZM129.121 19.6953L126.889 19.755C126.866 19.5959 126.803 19.455 126.7 19.3324C126.597 19.2064 126.463 19.1087 126.297 19.0391C126.135 18.9661 125.946 18.9297 125.73 18.9297C125.449 18.9297 125.208 18.986 125.01 19.0987C124.814 19.2114 124.718 19.3639 124.721 19.5561C124.718 19.7053 124.778 19.8345 124.9 19.9439C125.026 20.0533 125.25 20.1411 125.571 20.2074L127.043 20.4858C127.805 20.6316 128.372 20.8736 128.743 21.2116C129.118 21.5497 129.307 21.9972 129.31 22.554C129.307 23.0777 129.151 23.5334 128.843 23.9212C128.538 24.3089 128.12 24.6106 127.59 24.826C127.06 25.0381 126.453 25.1442 125.77 25.1442C124.68 25.1442 123.82 24.9205 123.19 24.473C122.564 24.0223 122.206 23.419 122.116 22.6634L124.517 22.6037C124.57 22.8821 124.708 23.0942 124.93 23.2401C125.152 23.3859 125.435 23.4588 125.78 23.4588C126.092 23.4588 126.345 23.4008 126.541 23.2848C126.736 23.1688 126.836 23.0147 126.839 22.8224C126.836 22.6501 126.76 22.5125 126.61 22.4098C126.461 22.3037 126.228 22.2209 125.909 22.1612L124.577 21.9077C123.811 21.7685 123.241 21.5116 122.867 21.1371C122.492 20.7592 122.307 20.2786 122.31 19.6953C122.307 19.1849 122.443 18.7491 122.718 18.3878C122.993 18.0232 123.384 17.7448 123.891 17.5526C124.398 17.3603 124.996 17.2642 125.686 17.2642C126.72 17.2642 127.535 17.4813 128.132 17.9155C128.728 18.3464 129.058 18.9396 129.121 19.6953ZM132.699 22.9964L132.709 20.098H133.047L135.195 17.3636H137.949L134.758 21.2812H134.116L132.699 22.9964ZM130.507 25V14.8182H132.938V25H130.507ZM135.25 25L133.251 21.8281L134.852 20.103L138.059 25H135.25ZM144.03 25H141.385L144.82 14.8182H148.096L151.532 25H148.887L146.496 17.3835H146.416L144.03 25ZM143.677 20.9929H149.205V22.8622H143.677V20.9929ZM152.628 25V17.3636H154.94V18.7656H155.024C155.183 18.3016 155.452 17.9354 155.83 17.6669C156.208 17.3984 156.658 17.2642 157.182 17.2642C157.712 17.2642 158.166 17.4001 158.544 17.6719C158.922 17.9437 159.162 18.3082 159.265 18.7656H159.345C159.487 18.3116 159.766 17.9486 160.18 17.6768C160.594 17.4018 161.083 17.2642 161.646 17.2642C162.369 17.2642 162.956 17.4962 163.406 17.9602C163.857 18.4209 164.083 19.054 164.083 19.8594V25H161.651V20.4162C161.651 20.035 161.554 19.745 161.358 19.5462C161.163 19.344 160.909 19.2429 160.597 19.2429C160.263 19.2429 159.999 19.3523 159.807 19.571C159.618 19.7865 159.524 20.0765 159.524 20.4411V25H157.187V20.3913C157.187 20.0367 157.091 19.7566 156.899 19.5511C156.706 19.3456 156.453 19.2429 156.138 19.2429C155.926 19.2429 155.739 19.2943 155.576 19.397C155.414 19.4964 155.286 19.639 155.193 19.8246C155.104 20.0102 155.059 20.2289 155.059 20.4808V25H152.628ZM166.802 27.8636C166.51 27.8636 166.235 27.8404 165.977 27.794C165.718 27.7509 165.496 27.6929 165.311 27.62L165.847 25.8551C166.086 25.9347 166.302 25.9811 166.494 25.9943C166.689 26.0076 166.857 25.9761 166.996 25.8999C167.138 25.8269 167.248 25.696 167.324 25.5071L167.419 25.2784L164.704 17.3636H167.249L168.656 22.8125H168.736L170.163 17.3636H172.723L169.845 25.7308C169.705 26.1484 169.508 26.5163 169.253 26.8345C169.001 27.156 168.675 27.4079 168.274 27.5902C167.876 27.7725 167.385 27.8636 166.802 27.8636Z" fill="#181C25"/>
<path d="M114.088 25H111.443L114.879 14.8182H118.155L121.59 25H118.945L116.554 17.3835H116.475L114.088 25ZM113.735 20.9929H119.264V22.8622H113.735V20.9929ZM129.121 19.6953L126.889 19.755C126.866 19.5959 126.803 19.455 126.7 19.3324C126.597 19.2064 126.463 19.1087 126.297 19.0391C126.135 18.9661 125.946 18.9297 125.73 18.9297C125.449 18.9297 125.208 18.986 125.01 19.0987C124.814 19.2114 124.718 19.3639 124.721 19.5561C124.718 19.7053 124.778 19.8345 124.9 19.9439C125.026 20.0533 125.25 20.1411 125.571 20.2074L127.043 20.4858C127.805 20.6316 128.372 20.8736 128.743 21.2116C129.118 21.5497 129.307 21.9972 129.31 22.554C129.307 23.0777 129.151 23.5334 128.843 23.9212C128.538 24.3089 128.12 24.6106 127.59 24.826C127.06 25.0381 126.453 25.1442 125.77 25.1442C124.68 25.1442 123.82 24.9205 123.19 24.473C122.564 24.0223 122.206 23.419 122.116 22.6634L124.517 22.6037C124.57 22.8821 124.708 23.0942 124.93 23.2401C125.152 23.3859 125.435 23.4588 125.78 23.4588C126.092 23.4588 126.345 23.4008 126.541 23.2848C126.736 23.1688 126.836 23.0147 126.839 22.8224C126.836 22.6501 126.76 22.5125 126.61 22.4098C126.461 22.3037 126.228 22.2209 125.909 22.1612L124.577 21.9077C123.811 21.7685 123.241 21.5116 122.867 21.1371C122.492 20.7592 122.307 20.2786 122.31 19.6953C122.307 19.1849 122.443 18.7491 122.718 18.3878C122.993 18.0232 123.384 17.7448 123.891 17.5526C124.398 17.3603 124.996 17.2642 125.686 17.2642C126.72 17.2642 127.535 17.4813 128.132 17.9155C128.728 18.3464 129.058 18.9396 129.121 19.6953ZM132.699 22.9964L132.709 20.098H133.047L135.195 17.3636H137.949L134.758 21.2812H134.116L132.699 22.9964ZM130.507 25V14.8182H132.938V25H130.507ZM135.25 25L133.251 21.8281L134.852 20.103L138.059 25H135.25ZM144.03 25H141.385L144.82 14.8182H148.096L151.532 25H148.887L146.496 17.3835H146.416L144.03 25ZM143.677 20.9929H149.205V22.8622H143.677V20.9929ZM152.628 25V17.3636H154.94V18.7656H155.024C155.183 18.3016 155.452 17.9354 155.83 17.6669C156.208 17.3984 156.658 17.2642 157.182 17.2642C157.712 17.2642 158.166 17.4001 158.544 17.6719C158.922 17.9437 159.162 18.3082 159.265 18.7656H159.345C159.487 18.3116 159.766 17.9486 160.18 17.6768C160.594 17.4018 161.083 17.2642 161.646 17.2642C162.369 17.2642 162.956 17.4962 163.406 17.9602C163.857 18.4209 164.083 19.054 164.083 19.8594V25H161.651V20.4162C161.651 20.035 161.554 19.745 161.358 19.5462C161.163 19.344 160.909 19.2429 160.597 19.2429C160.263 19.2429 159.999 19.3523 159.807 19.571C159.618 19.7865 159.524 20.0765 159.524 20.4411V25H157.187V20.3913C157.187 20.0367 157.091 19.7566 156.899 19.5511C156.706 19.3456 156.453 19.2429 156.138 19.2429C155.926 19.2429 155.739 19.2943 155.576 19.397C155.414 19.4964 155.286 19.639 155.193 19.8246C155.104 20.0102 155.059 20.2289 155.059 20.4808V25H152.628ZM166.802 27.8636C166.51 27.8636 166.235 27.8404 165.977 27.794C165.718 27.7509 165.496 27.6929 165.311 27.62L165.847 25.8551C166.086 25.9347 166.302 25.9811 166.494 25.9943C166.689 26.0076 166.857 25.9761 166.996 25.8999C167.138 25.8269 167.248 25.696 167.324 25.5071L167.419 25.2784L164.704 17.3636H167.249L168.656 22.8125H168.736L170.163 17.3636H172.723L169.845 25.7308C169.705 26.1484 169.508 26.5163 169.253 26.8345C169.001 27.156 168.675 27.4079 168.274 27.5902C167.876 27.7725 167.385 27.8636 166.802 27.8636Z" fill="url(#paint2_linear_12214_4912)" fill-opacity="0.4"/>
<defs>
<linearGradient id="paint0_linear_12214_4912" x1="0" y1="20" x2="264" y2="20" gradientUnits="userSpaceOnUse">
<stop stop-color="#17EABD"/>
<stop offset="0.1" stop-color="#2C9AFF"/>
<stop offset="0.2" stop-color="#0C28F7"/>
<stop offset="0.3" stop-color="#4902E0"/>
<stop offset="0.4" stop-color="#7F0DCF"/>
<stop offset="0.5" stop-color="#CB0DF7"/>
<stop offset="0.6" stop-color="#E6190E"/>
<stop offset="0.7" stop-color="#F55F0A"/>
<stop offset="0.8" stop-color="#FF9C13"/>
<stop offset="0.9" stop-color="#F7C60B"/>
<stop offset="1" stop-color="#E0DA02"/>
</linearGradient>
<linearGradient id="paint1_linear_12214_4912" x1="91" y1="20" x2="105" y2="20" gradientUnits="userSpaceOnUse">
<stop stop-color="#17EABD"/>
<stop offset="0.1" stop-color="#2C9AFF"/>
<stop offset="0.2" stop-color="#0C28F7"/>
<stop offset="0.3" stop-color="#4902E0"/>
<stop offset="0.4" stop-color="#7F0DCF"/>
<stop offset="0.5" stop-color="#CB0DF7"/>
<stop offset="0.6" stop-color="#E6190E"/>
<stop offset="0.7" stop-color="#F55F0A"/>
<stop offset="0.8" stop-color="#FF9C13"/>
<stop offset="0.9" stop-color="#F7C60B"/>
<stop offset="1" stop-color="#E0DA02"/>
</linearGradient>
<linearGradient id="paint2_linear_12214_4912" x1="111" y1="20" x2="173" y2="20" gradientUnits="userSpaceOnUse">
<stop stop-color="#17EABD"/>
<stop offset="0.1" stop-color="#2C9AFF"/>
<stop offset="0.2" stop-color="#0C28F7"/>
<stop offset="0.3" stop-color="#4902E0"/>
<stop offset="0.4" stop-color="#7F0DCF"/>
<stop offset="0.5" stop-color="#CB0DF7"/>
<stop offset="0.6" stop-color="#E6190E"/>
<stop offset="0.7" stop-color="#F55F0A"/>
<stop offset="0.8" stop-color="#FF9C13"/>
<stop offset="0.9" stop-color="#F7C60B"/>
<stop offset="1" stop-color="#E0DA02"/>
</linearGradient>
<clipPath id="clip0_12214_4912">
<rect width="14" height="22" fill="white" transform="translate(91 9)"/>
</clipPath>
</defs>
</svg>
