<svg width="24" height="24" viewBox="0 0 24 24" fill="none" xmlns="http://www.w3.org/2000/svg">
<path d="M8.46875 10.6562C8.34375 10.625 8.21875 10.625 8.0625 10.625H7.84375C7.8125 10.625 7.78125 10.6562 7.75 10.6562C7.71875 10.6562 7.6875 10.6562 7.65625 10.6562V11.9375H8C8.34375 11.9375 8.59375 11.9062 8.78125 11.8125C8.96875 11.7188 9.03125 11.5312 9.03125 11.2812C9.03125 11.1562 9.03125 11.0312 8.96875 10.9688C8.9375 10.875 8.875 10.8125 8.78125 10.75C8.6875 10.7188 8.59375 10.6875 8.46875 10.6562ZM15.6875 10.6562C15.5938 10.625 15.4375 10.625 15.3125 10.625H15.0625C15 10.625 14.9688 10.6562 14.9375 10.6562H14.9062V11.9375H15.2188C15.5625 11.9375 15.8438 11.9062 16 11.8125C16.1875 11.7188 16.2812 11.5312 16.2812 11.2812C16.2812 11.1562 16.25 11.0312 16.1875 10.9688C16.1562 10.875 16.0938 10.8125 16 10.75C15.9375 10.7188 15.8125 10.6875 15.6875 10.6562ZM7 4H17C18.6562 4 20 5.34375 20 7V17C20 18.6562 18.6562 20 17 20H7C5.34375 20 4 18.6562 4 17V7C4 5.34375 5.34375 4 7 4ZM7.71875 9.78125C7.59375 9.78125 7.46875 9.78125 7.34375 9.78125C7.21875 9.8125 7.09375 9.8125 7 9.84375C6.875 9.84375 6.75 9.875 6.65625 9.875V14.3125H7.65625V12.8125H8C8.65625 12.8125 9.1875 12.6875 9.53125 12.4375C9.90625 12.2188 10.0938 11.8125 10.0938 11.2812C10.0938 10.75 9.90625 10.3438 9.5625 10.125C9.1875 9.875 8.6875 9.75 8 9.75C7.90625 9.75 7.8125 9.78125 7.71875 9.78125ZM13.125 10.4688C13.0625 10.3125 12.9688 10.1875 12.8438 10.0625C12.7188 9.96875 12.5625 9.875 12.375 9.8125C12.1875 9.75 11.9688 9.71875 11.6875 9.71875C11.4062 9.71875 11.125 9.78125 10.875 9.90625C10.625 10 10.4062 10.1562 10.2188 10.3438L10.6875 11C10.7188 10.9688 10.7812 10.9375 10.8438 10.9062C10.9062 10.8438 10.9688 10.7812 11.0625 10.75C11.125 10.6875 11.2188 10.6562 11.3438 10.625C11.4375 10.5625 11.5312 10.5625 11.6562 10.5625C11.8125 10.5625 11.9688 10.5938 12.0625 10.6562C12.1875 10.75 12.2188 10.875 12.2188 11.0625C12.2188 11.1562 12.2188 11.25 12.1562 11.3438C12.125 11.4062 12.0625 11.5 12 11.5938L11.4688 12.125C11.4062 12.1875 11.3125 12.25 11.25 12.3125C11.1875 12.375 11.125 12.4375 11.0625 12.5C10.9375 12.625 10.8125 12.7812 10.6875 12.9375C10.5938 13.0938 10.5 13.25 10.4375 13.4062C10.375 13.5938 10.3438 13.7812 10.3438 14V14.3125H13.3438V13.5H11.4062C11.4375 13.4688 11.4688 13.4062 11.5 13.3438C11.5625 13.2812 11.625 13.2188 11.6875 13.125C11.75 13.0938 11.7812 13.0312 11.8438 13C11.8438 12.9688 11.875 12.9375 11.9062 12.9062L12.5 12.3125C12.625 12.2188 12.7188 12.0938 12.8125 11.9688C12.8438 11.9375 12.8438 11.9375 12.875 11.9062C12.9688 11.7812 13.0625 11.625 13.125 11.4688C13.1875 11.3125 13.2188 11.1562 13.2188 11C13.2188 10.8125 13.1875 10.625 13.125 10.4688ZM15.25 9.75H15.2188C15.125 9.75 15.0625 9.78125 14.9688 9.78125C14.8438 9.78125 14.7188 9.78125 14.5938 9.78125C14.3438 9.8125 14.0938 9.84375 13.875 9.875V14.3125H14.9062V12.8125H15.2188C15.875 12.8125 16.4062 12.6875 16.7812 12.4375C17.125 12.2188 17.3125 11.8125 17.3125 11.2812C17.3125 10.75 17.125 10.3438 16.7812 10.125C16.4062 9.90625 15.9062 9.78125 15.2188 9.75H15.25Z" fill="black" fill-opacity="0.72"/>
</svg>
