<svg width="24" height="24" viewBox="0 0 24 24" fill="none" xmlns="http://www.w3.org/2000/svg">
<path d="M5 5.5V16.5C5 17.3438 5.65625 18 6.5 18H19.5C19.75 18 20 18.25 20 18.5C20 18.7812 19.75 19 19.5 19H6.5C5.09375 19 4 17.9062 4 16.5V5.5C4 5.25 4.21875 5 4.5 5C4.75 5 5 5.25 5 5.5ZM14 5.5V7C14 7.03125 14 7.03125 14 7.03125C14.5625 7.15625 15 7.65625 15 8.25V10.75C15 11.375 14.5625 11.875 14 12V13.5C14 13.7812 13.75 14 13.5 14C13.2188 14 13 13.7812 13 13.5V12C12.4062 11.875 12 11.375 12 10.75V8.25C12 7.65625 12.4062 7.15625 13 7.03125C13 7.03125 13 7.03125 13 7V5.5C13 5.25 13.2188 5 13.5 5C13.75 5 14 5.25 14 5.5ZM9.5 6C9.75 6 10 6.25 10 6.5V8C10 8.03125 10 8.03125 10 8.03125C10.5625 8.15625 11 8.65625 11 9.25V12.75C11 13.375 10.5625 13.875 10 14V15.5C10 15.7812 9.75 16 9.5 16C9.21875 16 9 15.7812 9 15.5V14C8.40625 13.875 8 13.375 8 12.75V9.25C8 8.65625 8.40625 8.15625 9 8.03125C9 8.03125 9 8.03125 9 8V6.5C9 6.25 9.21875 6 9.5 6ZM14 8.25C14 8.125 13.875 8 13.75 8H13.25C13.0938 8 13 8.125 13 8.25V10.75C13 10.9062 13.0938 11 13.25 11H13.75C13.875 11 14 10.9062 14 10.75V8.25ZM17.25 11C17.0938 11 17 11.125 17 11.25V12.75C17 12.9062 17.0938 13 17.25 13H17.75C17.875 13 18 12.9062 18 12.75V11.25C18 11.125 17.875 11 17.75 11H17.25ZM17 10V8.5C17 8.25 17.2188 8 17.5 8C17.75 8 18 8.25 18 8.5V10C18 10.0312 18 10.0312 18 10.0312C18.5625 10.1562 19 10.6562 19 11.25V12.75C19 13.375 18.5625 13.875 18 14V15.5C18 15.7812 17.75 16 17.5 16C17.2188 16 17 15.7812 17 15.5V14C16.4062 13.875 16 13.375 16 12.75V11.25C16 10.6562 16.4062 10.1562 17 10.0312C17 10.0312 17 10.0312 17 10ZM9.75 9H9.25C9.09375 9 9 9.125 9 9.25V12.75C9 12.9062 9.09375 13 9.25 13H9.75C9.875 13 10 12.9062 10 12.75V9.25C10 9.125 9.875 9 9.75 9Z" fill="black" fill-opacity="0.72"/>
</svg>
