<svg width="24" height="24" viewBox="0 0 24 24" fill="none" xmlns="http://www.w3.org/2000/svg">
<path d="M6.5 5H18.5C18.75 5 19 5.25 19 5.5C19 5.78125 18.75 6 18.5 6H6.5C5.65625 6 5 6.6875 5 7.5V16.5C5 17.3438 5.65625 18 6.5 18H17.5C18.3125 18 19 17.3438 19 16.5V9.5C19 8.6875 18.3125 8 17.5 8H7.5C7.21875 8 7 7.78125 7 7.5C7 7.25 7.21875 7 7.5 7H17.5C18.875 7 20 8.125 20 9.5V16.5C20 17.9062 18.875 19 17.5 19H6.5C5.09375 19 4 17.9062 4 16.5V7.5C4 6.125 5.09375 5 6.5 5ZM16 13.75C15.5625 13.75 15.25 13.4375 15.25 13C15.25 12.5938 15.5625 12.25 16 12.25C16.4062 12.25 16.75 12.5938 16.75 13C16.75 13.4375 16.4062 13.75 16 13.75Z" fill="black" fill-opacity="0.72"/>
</svg>
